<svg xmlns="http://www.w3.org/2000/svg" viewBox="0 0 880 550">
  <path fill="#FFF" fill-rule="evenodd" d="M880 0v550H0V0h880zM729.5 331.6c-6.733 0-12.417 1-17.05 3-4.633 2-8.117 4.717-10.45 8.15-2.333 3.433-3.5 7.283-3.5 11.55 0 4.867 1.267 8.733 3.8 11.6 2.533 2.867 5.567 4.95 9.1 6.25 3.533 1.3 7.933 2.517 13.2 3.65 4.8 1.067 8.283 2.083 10.45 3.05 2.167.967 3.25 2.45 3.25 4.45 0 3.8-3.8 5.7-11.4 5.7-4 0-8.067-.633-12.2-1.9-3.89-1.192-7.337-2.739-10.342-4.64l-.558-.36-6.5 14.6c3.333 2.333 7.667 4.2 13 5.6 5.333 1.4 10.833 2.1 16.5 2.1 6.667 0 12.333-1.017 17-3.05s8.167-4.75 10.5-8.15c2.333-3.4 3.5-7.2 3.5-11.4 0-4.867-1.283-8.717-3.85-11.55s-5.6-4.9-9.1-6.2c-3.5-1.3-7.917-2.517-13.25-3.65-4.733-1-8.167-1.967-10.3-2.9-2.133-.933-3.2-2.333-3.2-4.2s.9-3.383 2.7-4.55c1.8-1.167 4.667-1.75 8.6-1.75 6.07 0 12.33 1.69 18.776 5.068l.624.332 6.1-14.7c-3.4-2-7.333-3.517-11.8-4.55-4.467-1.033-9-1.55-13.6-1.55zm-86.7 1.4H623v38.8c0 10.4 2.883 18.433 8.65 24.1 5.767 5.667 13.85 8.5 24.25 8.5s18.483-2.833 24.25-8.5c5.658-5.56 8.54-13.398 8.647-23.514l.003-.586V333h-19.5v38.2c0 11.2-4.4 16.8-13.2 16.8-8.754 0-13.187-5.46-13.298-16.377l-.002-.423V333zm-68.5-1.4c-7.4 0-14.05 1.567-19.95 4.7-5.9 3.133-10.533 7.467-13.9 13-3.367 5.533-5.05 11.767-5.05 18.7s1.683 13.167 5.05 18.7c3.367 5.533 8 9.867 13.9 13 5.9 3.133 12.55 4.7 19.95 4.7 7.4 0 14.05-1.567 19.95-4.7 5.9-3.133 10.533-7.467 13.9-13 3.367-5.533 5.05-11.767 5.05-18.7s-1.683-13.167-5.05-18.7c-3.367-5.533-8-9.867-13.9-13-5.9-3.133-12.55-4.7-19.95-4.7zm247.5 1.4h-54.9v70h56.2v-15.3h-36.6v-12.8h31.1v-14.8h-31.1v-11.8h35.3V333zm-343.6 0h-19.8v70h19.8v-27.3h27V403H525v-70h-19.8v26.3h-27V333zm-61 0h-19.8v70h53.2v-15.7h-33.4V333zm-32.1 0h-54.9v70h56.2v-15.3h-36.6v-12.8h31.1v-14.8h-31.1v-11.8h35.3V333zm-67.2 0H263v70h56.2v-15.3h-36.6v-12.8h31.1v-14.8h-31.1v-11.8h35.3V333zm-115.7 0h-19.8v70h19.8v-27.3h27V403H249v-70h-19.8v26.3h-27V333zM79 333H58.6l22.7 70h21.2l14-42.6 13.4 42.6h21.2l22.7-70h-18.9l-14.7 45.1-14.1-45.1h-18.2l-14.8 44.7L79 333zm495.3 15c3.533 0 6.733.833 9.6 2.5s5.133 4.017 6.8 7.05c1.667 3.033 2.5 6.517 2.5 10.45 0 3.933-.833 7.417-2.5 10.45-1.667 3.033-3.933 5.383-6.8 7.05-2.867 1.667-6.067 2.5-9.6 2.5-3.533 0-6.733-.833-9.6-2.5s-5.133-4.017-6.8-7.05c-1.667-3.033-2.5-6.517-2.5-10.45 0-3.933.833-7.417 2.5-10.45 1.667-3.033 3.933-5.383 6.8-7.05 2.867-1.667 6.067-2.5 9.6-2.5zm-88.1-112h-54.9v70h56.2v-15.3h-36.6v-12.8H482v-14.8h-31.1v-11.8h35.3V236zm-96.9 0h-32v70h19.8v-18.6h10.8l12.7 18.6h21.2l-15.1-22c4.4-2.133 7.783-5.083 10.15-8.85 2.367-3.767 3.55-8.183 3.55-13.25 0-5.267-1.267-9.85-3.8-13.75-2.533-3.9-6.133-6.9-10.8-9-4.494-2.022-9.76-3.07-15.8-3.146l-.7-.004zm-68.6 0h-19.5l-30.9 70h20.2l5.5-13.6h29.6l5.5 13.6h20.6l-31-70zm-83.4 0h-54.9v70h56.2v-15.3H202v-12.8h31.1v-14.8H202v-11.8h35.3V236zM79 236H58.6l22.7 70h21.2l14-42.6 13.4 42.6h21.2l22.7-70h-18.9l-14.7 45.1-14.1-45.1h-18.2l-14.8 44.7L79 236zm231.8 19.4l9 22.4h-18l9-22.4zm77.3-3.8c4.067 0 7.133.9 9.2 2.7 2.067 1.8 3.1 4.333 3.1 7.6 0 3.267-1.033 5.783-3.1 7.55-2.067 1.767-5.133 2.65-9.2 2.65h-11v-20.5h11zm-201.5-62.5c-3.333 0-6.067.967-8.2 2.9-2.133 1.933-3.2 4.4-3.2 7.4 0 2.933 1.067 5.417 3.2 7.45 2.133 2.033 4.867 3.05 8.2 3.05 3.267 0 5.967-1.017 8.1-3.05s3.2-4.517 3.2-7.45c0-3-1.05-5.467-3.15-7.4-2.1-1.933-4.817-2.9-8.15-2.9zM164.4 139h-19.8v70h19.8v-70zm-80.6 0H64v70h19.8v-27.3h27V209h19.8v-70h-19.8v26.3h-27V139zm114.1 0h-22.6l3.7 44.5h15.1l3.8-44.5z"/>
</svg>