<svg xmlns="http://www.w3.org/2000/svg" viewBox="0 0 880 550">
  <path fill="#FFF" fill-rule="evenodd" d="M880 0v550H0V0h880zM363.3 360.35c-7.2 0-13.725 1.425-19.575 4.275-5.85 2.85-10.475 7.3-13.875 13.35-3.4 6.05-5.1 13.875-5.1 23.475 0 10.1 1.55 18.15 4.65 24.15 3.1 6 7.275 10.3 12.525 12.9 5.25 2.6 11.075 3.9 17.475 3.9 6 0 11.1-1.275 15.3-3.825 4.2-2.55 7.625-5.8 10.275-9.75 2.503-3.73 4.359-7.483 5.568-11.259l.207-.666-2.55-.9c-3.3 4.6-6.65 7.425-10.05 8.475-3.4 1.05-6.1 1.575-8.1 1.575-2.7 0-5.375-.75-8.025-2.25-2.65-1.5-4.85-4.2-6.6-8.1-1.695-3.778-2.57-9.01-2.622-15.698l-.003-.652v-3.15c0-.5.012-1 .038-1.5l.046-.75h38.766c0-11.888-2.437-20.421-7.312-25.6l-.263-.275c-5.05-5.15-11.975-7.725-20.775-7.725zm-75.45 0c-7.2 0-13.725 1.425-19.575 4.275-5.85 2.85-10.475 7.3-13.875 13.35-3.4 6.05-5.1 13.875-5.1 23.475 0 10.1 1.55 18.15 4.65 24.15 3.1 6 7.275 10.3 12.525 12.9 5.25 2.6 11.075 3.9 17.475 3.9 6 0 11.1-1.275 15.3-3.825 4.2-2.55 7.625-5.8 10.275-9.75 2.503-3.73 4.359-7.483 5.568-11.259l.207-.666-2.55-.9c-3.3 4.6-6.65 7.425-10.05 8.475-3.4 1.05-6.1 1.575-8.1 1.575-2.7 0-5.375-.75-8.025-2.25-2.65-1.5-4.85-4.2-6.6-8.1-1.695-3.778-2.57-9.01-2.622-15.698l-.003-.652v-3.15c0-.5.012-1 .038-1.5l.046-.75H316.2c0-11.888-2.437-20.421-7.312-25.6l-.263-.275c-5.05-5.15-11.975-7.725-20.775-7.725zm464.55 0c-4.9 0-9.5.875-13.8 2.625-4.3 1.75-7.775 4.225-10.425 7.425-2.65 3.2-3.975 7.05-3.975 11.55 0 3.9.85 7.425 2.55 10.575 1.7 3.15 3.875 6.05 6.525 8.7 2.65 2.65 5.475 5.375 8.475 8.175 4 3.6 7.325 6.9 9.975 9.9 2.65 3 3.975 6.7 3.975 11.1 0 2.8-.875 4.875-2.625 6.225-1.75 1.35-3.775 2.025-6.075 2.025-3.6 0-6.775-1.175-9.525-3.525-2.75-2.35-5-5.575-6.75-9.675-1.663-3.895-2.806-8.331-3.43-13.31l-.095-.79h-3c0 7.6-.05 13.7-.15 18.3-.094 4.33-.233 8.039-.415 11.128l-.035.572h3c.4-1.4.95-2.625 1.65-3.675.7-1.05 1.55-1.575 2.55-1.575 1.1 0 2.225.225 3.375.675 1.15.45 2.525 1.075 4.125 1.875 1.6 1 3.7 1.875 6.3 2.625 2.6.75 5.65 1.125 9.15 1.125 5.6 0 10.675-.975 15.225-2.925 4.55-1.95 8.2-4.675 10.95-8.175 2.75-3.5 4.125-7.5 4.125-12 0-5.8-1.55-10.55-4.65-14.25-3.1-3.7-6.95-7.4-11.55-11.1-2.8-2.4-5.6-4.675-8.4-6.825-2.8-2.15-5.1-4.4-6.9-6.75-1.8-2.35-2.7-5.025-2.7-8.025 0-2.6.85-4.65 2.55-6.15 1.7-1.5 3.8-2.25 6.3-2.25 4.1 0 7.425 1.2 9.975 3.6 2.55 2.4 4.5 5.4 5.85 9a44.928 44.928 0 012.539 10.21l.086.74h3v-1.49c.008-6.114.057-11.092.15-14.935.094-3.906.233-7.258.415-10.057l.035-.518h-3c-.8 4.7-2.95 6-6.45 3.9-1.5-.8-3.925-1.675-7.275-2.625-3.35-.95-7.225-1.425-11.625-1.425zm-45.75.45c-3.7.7-7.725 1.225-12.075 1.575-4.35.35-9.025.525-14.025.525-2.625 0-5.327-.115-8.105-.345l-1.195-.105v3.15c3.2 0 5.4 1.075 6.6 3.225 1.156 2.07 1.755 5.23 1.798 9.48l.002.495v45c0 3.1-1.1 5.675-3.3 7.725-2.2 2.05-4.7 3.075-7.5 3.075-1.7 0-3.1-.35-4.2-1.05-1.1-.7-1.9-1.75-2.4-3.15-.464-1.3-.713-2.902-.746-4.805l-.004-.445V360.8c-3.7.7-7.725 1.225-12.075 1.575-4.35.35-9.025.525-14.025.525-2.625 0-5.327-.115-8.105-.345l-1.195-.105v3.15c3.2 0 5.4 1.075 6.6 3.225 1.156 2.07 1.755 5.23 1.798 9.48l.002.495v38.25c0 5.1.35 9.15 1.05 12.15.7 3 1.8 5.4 3.3 7.2 1.4 1.7 3.425 3.125 6.075 4.275 2.65 1.15 6.275 1.725 10.875 1.725 5.4 0 10.125-.875 14.175-2.625 3.905-1.687 7.044-4.421 9.415-8.2l.26-.425v10.8c3.8-.8 7.85-1.35 12.15-1.65 4.3-.3 8.95-.45 13.95-.45 2.657 0 5.314.11 7.971.33l1.329.12v-3.15c-3.1 0-5.275-1.075-6.525-3.225-1.204-2.07-1.828-5.23-1.872-9.48l-.003-.495V360.8zm125.1-.45c-7.2 0-13.725 1.425-19.575 4.275-5.85 2.85-10.475 7.3-13.875 13.35-3.4 6.05-5.1 13.875-5.1 23.475 0 10.1 1.55 18.15 4.65 24.15 3.1 6 7.275 10.3 12.525 12.9 5.25 2.6 11.075 3.9 17.475 3.9 6 0 11.1-1.275 15.3-3.825 4.2-2.55 7.625-5.8 10.275-9.75 2.503-3.73 4.359-7.483 5.568-11.259l.207-.666-2.55-.9c-3.3 4.6-6.65 7.425-10.05 8.475-3.4 1.05-6.1 1.575-8.1 1.575-2.7 0-5.375-.75-8.025-2.25-2.65-1.5-4.85-4.2-6.6-8.1-1.695-3.778-2.57-9.01-2.622-15.698l-.003-.652v-3.15c0-.5.013-1 .037-1.5l.047-.75H860.1c0-11.888-2.437-20.421-7.312-25.6l-.263-.275c-5.05-5.15-11.975-7.725-20.775-7.725zm-250.5 0c-7.7 0-14.45 1.325-20.25 3.975-5.8 2.65-10.3 6.975-13.5 12.975-3.2 6-4.8 14.05-4.8 24.15 0 10.1 1.6 18.15 4.8 24.15 3.2 6 7.7 10.3 13.5 12.9 5.8 2.6 12.55 3.9 20.25 3.9 7.8 0 14.575-1.3 20.325-3.9 5.75-2.6 10.225-6.9 13.425-12.9 3.2-6 4.8-14.05 4.8-24.15 0-10.1-1.6-18.15-4.8-24.15-3.2-6-7.675-10.325-13.425-12.975-5.75-2.65-12.525-3.975-20.325-3.975zM482.85 323c-3.7.7-7.725 1.225-12.075 1.575-4.35.35-9.025.525-14.025.525-2.625 0-5.327-.115-8.105-.345l-1.195-.105v3.15c3.2 0 5.4 1.075 6.6 3.225 1.156 2.07 1.755 5.23 1.798 9.48l.002.495v85.35c0 4.2-.625 7.05-1.875 8.55-1.2 1.44-3.252 2.189-6.157 2.246l-.368.004v3.15c2.2-.1 5.45-.225 9.75-.375s8.55-.225 12.75-.225c3.9 0 7.7.075 11.4.225 3.524.143 6.231.263 8.122.36l.278.015v-3.15c-2.5 0-4.275-.75-5.325-2.25-1.013-1.446-1.537-4.148-1.573-8.105l-.002-.445v-47.4c0-3.2 1.1-5.8 3.3-7.8 2.2-2 4.7-3 7.5-3 1.8 0 3.225.35 4.275 1.05 1.05.7 1.825 1.75 2.325 3.15.464 1.3.713 2.902.746 4.805l.004.445v48.75c0 4.2-.5 7.05-1.5 8.55-.958 1.438-2.651 2.186-5.08 2.246l-.32.004v3.15c2-.1 5-.225 9-.375s8.1-.225 12.3-.225c3.9 0 7.875.075 11.925.225 4.05.15 7.075.275 9.075.375v-3.15c-3.1 0-5.275-.75-6.525-2.25-1.207-1.448-1.831-4.155-1.873-8.12l-.002-.43V385.7c0-5.1-.35-9.15-1.05-12.15-.7-3-1.8-5.4-3.3-7.2-1.4-1.7-3.425-3.125-6.075-4.275-2.65-1.15-6.275-1.725-10.875-1.725-5.4 0-10.125.875-14.175 2.625-3.905 1.687-7.044 4.421-9.415 8.2l-.26.425V323zm-49.2 0c-3.7.7-7.725 1.225-12.075 1.575-4.35.35-9.025.525-14.025.525-2.625 0-5.327-.115-8.105-.345l-1.195-.105v3.15c3.2 0 5.4 1.075 6.6 3.225 1.156 2.07 1.755 5.23 1.798 9.48l.002.495v85.35c0 4.2-.625 7.05-1.875 8.55-1.2 1.44-3.252 2.189-6.157 2.246l-.368.004v3.15c2.2-.1 5.45-.225 9.75-.375s8.55-.225 12.75-.225c4.2 0 8.3.075 12.3.225 4 .15 7 .275 9 .375v-3.15c-3.1 0-5.275-.75-6.525-2.25-1.207-1.448-1.831-4.155-1.873-8.12l-.002-.43V323zm-244.2 0c-3.7.7-7.725 1.225-12.075 1.575-4.35.35-9.025.525-14.025.525-2.625 0-5.327-.115-8.105-.345l-1.195-.105v3.15c3.2 0 5.4 1.075 6.6 3.225 1.156 2.07 1.755 5.23 1.798 9.48l.002.495v85.35c0 4.2-.625 7.05-1.875 8.55-1.2 1.44-3.252 2.189-6.157 2.246l-.368.004v3.15c2.2-.1 5.45-.225 9.75-.375s8.55-.225 12.75-.225c3.9 0 7.7.075 11.4.225 3.524.143 6.231.263 8.122.36l.278.015v-3.15c-2.5 0-4.275-.75-5.325-2.25-1.012-1.446-1.537-4.148-1.573-8.105l-.002-.445v-47.4c0-3.2 1.1-5.8 3.3-7.8 2.2-2 4.7-3 7.5-3 1.8 0 3.225.35 4.275 1.05 1.05.7 1.825 1.75 2.325 3.15.464 1.3.713 2.902.746 4.805l.004.445v48.75c0 4.2-.5 7.05-1.5 8.55-.958 1.438-2.651 2.186-5.08 2.246l-.32.004v3.15c2-.1 5-.225 9-.375s8.1-.225 12.3-.225c3.9 0 7.875.075 11.925.225 4.05.15 7.075.275 9.075.375v-3.15c-3.1 0-5.275-.75-6.525-2.25-1.207-1.448-1.831-4.155-1.873-8.12l-.002-.43V385.7c0-5.1-.35-9.15-1.05-12.15-.7-3-1.8-5.4-3.3-7.2-1.4-1.7-3.425-3.125-6.075-4.275-2.65-1.15-6.275-1.725-10.875-1.725-5.4 0-10.125.875-14.175 2.625-3.905 1.687-7.044 4.421-9.415 8.2l-.26.425V323zm-37.65 39.45c-1.1.2-2.85.35-5.25.45-2.4.1-4.5.15-6.3.15-1.2 0-2.9-.025-5.1-.075-2.2-.05-4.425-.125-6.675-.225a224.801 224.801 0 01-5.144-.277l-.331-.023v3.15c4.8.4 8.4 3 10.8 7.8 2.356 4.711 2.062 12.071-.88 22.08l-.17.57-6.448 21.446L109.2 362.6c-2.08.08-4.192.144-6.336.192l-1.614.033a84.087 84.087 0 01-6.833-.147L93.3 362.6l-.014.071-.136-.071-12.897 50.256L67.8 371.3c-.376-1.6-.354-2.801.066-3.604l.084-.146c.5-.8 1.475-1.325 2.925-1.575 1.33-.23 2.931-.353 4.807-.372l.518-.003v-3.15c-3 .2-6.225.4-9.675.6-3.45.2-6.725.3-9.825.3-5.2 0-9.95-.075-14.25-.225-3.763-.131-7.41-.32-10.943-.566L30 362.45v3.15c1.1 0 2.475.4 4.125 1.2 1.595.773 3.073 3.042 4.435 6.805l.14.395 23.1 66.3c2.4-.2 4.825-.3 7.275-.3 2.042 0 4.066.07 6.073.208l1.202.092 13.624-51.939L107.85 440.3c2-.167 4.017-.264 6.052-.292l1.223-.008c2.45 0 4.875.1 7.275.3l18.75-60.15c1.6-5 3.3-8.5 5.1-10.5 1.694-1.882 3.433-3.189 5.215-3.92l.335-.13v-3.15zm429.45.9c3 0 5.5 3 7.5 9s3 15.7 3 29.1c0 13.4-1 23.075-3 29.025-2 5.95-4.5 8.925-7.5 8.925s-5.5-2.975-7.5-8.925c-2-5.95-3-15.625-3-29.025 0-13.4 1-23.1 3-29.1s4.5-9 7.5-9zm-294.45.45c1.9 0 3.4 1.25 4.5 3.75s1.9 5.825 2.4 9.975c.467 3.873.672 8.073.616 12.6l-.016.975-17.355.001.024-.427c.528-9.6 1.605-16.434 3.231-20.499 1.7-4.25 3.9-6.375 6.6-6.375zm75.45 0c1.9 0 3.4 1.25 4.5 3.75s1.9 5.825 2.4 9.975c.467 3.873.672 8.073.616 12.6l-.016.975-17.355.001.024-.427c.528-9.6 1.605-16.434 3.231-20.499 1.7-4.25 3.9-6.375 6.6-6.375zm468.45 0c1.9 0 3.4 1.25 4.5 3.75s1.9 5.825 2.4 9.975c.467 3.873.672 8.073.616 12.6l-.016.975-17.355.001.024-.427c.528-9.6 1.605-16.434 3.231-20.499 1.7-4.25 3.9-6.375 6.6-6.375zM189.55 225c-7.2 0-13.725 1.425-19.575 4.275-5.85 2.85-10.475 7.3-13.875 13.35-3.4 6.05-5.1 13.875-5.1 23.475 0 10.1 1.55 18.15 4.65 24.15 3.1 6 7.275 10.3 12.525 12.9 5.25 2.6 11.075 3.9 17.475 3.9 6 0 11.1-1.275 15.3-3.825 4.2-2.55 7.625-5.8 10.275-9.75 2.503-3.73 4.359-7.483 5.568-11.259l.207-.666-2.55-.9c-3.3 4.6-6.65 7.425-10.05 8.475-3.4 1.05-6.1 1.575-8.1 1.575-2.7 0-5.375-.75-8.025-2.25-2.65-1.5-4.85-4.2-6.6-8.1-1.695-3.778-2.57-9.01-2.622-15.698l-.003-.652v-3.15c0-.5.012-1 .038-1.5l.046-.75H217.9c0-11.888-2.437-20.421-7.312-25.6l-.263-.275c-5.05-5.15-11.975-7.725-20.775-7.725zm260.7 0c-7.2 0-13.725 1.425-19.575 4.275-5.85 2.85-10.475 7.3-13.875 13.35-3.4 6.05-5.1 13.875-5.1 23.475 0 10.1 1.55 18.15 4.65 24.15 3.1 6 7.275 10.3 12.525 12.9 5.25 2.6 11.075 3.9 17.475 3.9 6 0 11.1-1.275 15.3-3.825 4.2-2.55 7.625-5.8 10.275-9.75 2.503-3.73 4.359-7.483 5.568-11.259l.207-.666-2.55-.9c-3.3 4.6-6.65 7.425-10.05 8.475-3.4 1.05-6.1 1.575-8.1 1.575-2.7 0-5.375-.75-8.025-2.25-2.65-1.5-4.85-4.2-6.6-8.1-1.695-3.778-2.57-9.01-2.622-15.698l-.003-.652v-3.15c0-.5.013-1 .037-1.5l.047-.75H478.6c0-11.888-2.437-20.421-7.312-25.6l-.263-.275c-5.05-5.15-11.975-7.725-20.775-7.725zm-154.2 0c-4.6 0-9 .375-13.2 1.125-4.2.75-7.8 1.975-10.8 3.675-3.1 1.8-5.425 3.775-6.975 5.925-1.55 2.15-2.325 4.775-2.325 7.875 0 3.7 1.1 6.8 3.3 9.3 2.2 2.5 5.3 3.75 9.3 3.75 3.8 0 7.1-1.15 9.9-3.45 2.8-2.3 4.2-5.45 4.2-9.45 0-2.8-.8-5.375-2.4-7.725-1.6-2.35-4.15-4.175-7.65-5.475 1.1-.8 2.375-1.425 3.825-1.875 1.45-.45 2.975-.675 4.575-.675 3 0 5.25.7 6.75 2.1 1.5 1.4 2.525 3.05 3.075 4.95.5 1.727.773 3.33.818 4.81l.007.44v13.35c0 2.3-.95 4.175-2.85 5.625-1.9 1.45-4.375 2.725-7.425 3.825s-6.275 2.225-9.675 3.375a57.98 57.98 0 00-9.675 4.275c-3.05 1.7-5.525 3.9-7.425 6.6-1.9 2.7-2.85 6.2-2.85 10.5 0 4.8 1.525 9.025 4.575 12.675 3.05 3.65 7.975 5.475 14.775 5.475 5.2 0 9.5-1.075 12.9-3.225 3.4-2.15 6.1-4.875 8.1-8.175.2 3 1.375 5.65 3.525 7.95S308.9 306 315.4 306c3.6 0 7.025-.45 10.275-1.35 3.07-.85 5.67-2.146 7.803-3.888l.372-.312-1.5-2.55c-.7.5-1.425 1-2.175 1.5-.75.5-1.525.75-2.325.75-.9 0-1.525-.45-1.875-1.35-.332-.853-.506-2.423-.524-4.712l-.001-.388v-40.2c0-5.2-.3-9.45-.9-12.75-.6-3.3-1.95-6.05-4.05-8.25-3-3.1-6.6-5.125-10.8-6.075-4.2-.95-8.75-1.425-13.65-1.425zm-149.25 2.1c-1.1.2-2.85.35-5.25.45-2.4.1-4.5.15-6.3.15-1.2 0-2.9-.025-5.1-.075-2.2-.05-4.425-.125-6.675-.225a224.801 224.801 0 01-5.144-.277L118 227.1v3.15c4.8.4 8.4 3 10.8 7.8 2.356 4.711 2.062 12.071-.88 22.08l-.17.57-6.448 21.446L104.2 227.25c-2.08.08-4.192.144-6.336.192l-1.614.033a84.087 84.087 0 01-6.833-.147l-1.117-.078-.014.071-.136-.071-12.897 50.256L62.8 235.95c-.376-1.6-.354-2.801.066-3.604l.084-.146c.5-.8 1.475-1.325 2.925-1.575 1.33-.23 2.931-.353 4.807-.372l.518-.003v-3.15c-3 .2-6.225.4-9.675.6-3.45.2-6.725.3-9.825.3-5.2 0-9.95-.075-14.25-.225-3.763-.131-7.41-.32-10.943-.566L25 227.1v3.15c1.1 0 2.475.4 4.125 1.2 1.595.773 3.073 3.042 4.435 6.805l.14.395 23.1 66.3c2.4-.2 4.825-.3 7.275-.3 2.042 0 4.066.07 6.073.208l1.202.092 13.624-51.939 17.876 51.939c2-.167 4.017-.264 6.052-.292l1.223-.008c2.45 0 4.875.1 7.275.3l18.75-60.15c1.6-5 3.3-8.5 5.1-10.5 1.694-1.882 3.433-3.189 5.215-3.92l.335-.13v-3.15zm246-2.1c-2.9 0-5.575.4-8.025 1.2-2.45.8-4.625 2.025-6.525 3.675-1.781 1.547-3.299 3.511-4.553 5.893l-.247.482v-10.8c-3.7.7-7.725 1.225-12.075 1.575-4.35.35-9.025.525-14.025.525-2.625 0-5.327-.115-8.105-.345l-1.195-.105v3.15c3.2 0 5.4 1.075 6.6 3.225 1.156 2.07 1.755 5.23 1.798 9.48l.002.495V291c0 4.2-.625 7.05-1.875 8.55-1.2 1.44-3.252 2.189-6.157 2.246l-.368.004v3.15c2.3-.1 5.75-.225 10.35-.375s9.15-.225 13.65-.225c4.8 0 9.475.075 14.025.225 4.55.15 7.975.275 10.275.375v-3.15c-4.6 0-7.9-.85-9.9-2.55-1.937-1.647-2.937-4.748-2.997-9.305l-.003-.445v-45c0-2 .4-3.875 1.2-5.625.8-1.75 1.875-3.3 3.225-4.65 1.35-1.35 2.825-2.375 4.425-3.075 1.4-.7 3-1.05 4.8-1.05-2.2 1.5-4.025 3.35-5.475 5.55-1.45 2.2-2.175 5-2.175 8.4 0 3.2 1.125 5.8 3.375 7.8s5.575 3 9.975 3c4.1 0 7.425-1.325 9.975-3.975 2.55-2.65 3.825-6.225 3.825-10.725 0-2.3-.4-4.625-1.2-6.975-.8-2.35-2.2-4.3-4.2-5.85-2-1.55-4.8-2.325-8.4-2.325zm-94.35 34.8v31.65c-.9 1-1.775 1.675-2.625 2.025-.85.35-1.825.525-2.925.525-2.2 0-4.025-.8-5.475-2.4-1.45-1.6-2.175-4.4-2.175-8.4 0-3.5.475-6.375 1.425-8.625.95-2.25 2.15-4.15 3.6-5.7 1.45-1.55 2.925-3 4.425-4.35a18.13 18.13 0 003.495-4.28l.255-.445zm150.75-31.35c1.9 0 3.4 1.25 4.5 3.75s1.9 5.825 2.4 9.975c.467 3.873.672 8.073.616 12.6l-.016.975-17.355.001.024-.427c.528-9.6 1.605-16.434 3.231-20.499 1.7-4.25 3.9-6.375 6.6-6.375zm-260.7 0c1.9 0 3.4 1.25 4.5 3.75s1.9 5.825 2.4 9.975c.467 3.873.672 8.073.616 12.6l-.016.975-17.355.001.024-.427c.528-9.6 1.605-16.434 3.231-20.499 1.7-4.25 3.9-6.375 6.6-6.375zm-.45-47.85c-4.8 0-8.475 1.075-11.025 3.225-2.55 2.15-3.825 5.375-3.825 9.675 0 4.3 1.275 7.525 3.825 9.675 2.55 2.15 6.225 3.225 11.025 3.225 4.7 0 8.35-1.075 10.95-3.225 2.6-2.15 3.9-5.375 3.9-9.675 0-4.3-1.3-7.525-3.9-9.675-2.6-2.15-6.25-3.225-10.95-3.225zM60.4 87c-3.7.7-7.725 1.225-12.075 1.575-4.35.35-9.025.525-14.025.525-2.625 0-5.327-.115-8.105-.345L25 88.65v3.15c3.2 0 5.4 1.075 6.6 3.225 1.156 2.07 1.755 5.23 1.798 9.48l.002.495v85.35c0 4.2-.625 7.05-1.875 8.55-1.2 1.44-3.252 2.189-6.157 2.246l-.368.004v3.15c2.2-.1 5.45-.225 9.75-.375s8.55-.225 12.75-.225c3.9 0 7.7.075 11.4.225 3.524.143 6.231.263 8.122.36l.278.015v-3.15c-2.5 0-4.275-.75-5.325-2.25-1.013-1.446-1.537-4.148-1.573-8.105l-.002-.445v-47.4c0-3.2 1.1-5.8 3.3-7.8 2.2-2 4.7-3 7.5-3 1.8 0 3.225.35 4.275 1.05 1.05.7 1.825 1.75 2.325 3.15.464 1.3.713 2.902.746 4.805l.004.445v48.75c0 4.2-.5 7.05-1.5 8.55-.958 1.438-2.651 2.186-5.08 2.246l-.32.004v3.15c2-.1 5-.225 9-.375s8.1-.225 12.3-.225c3.9 0 7.875.075 11.925.225 4.05.15 7.075.275 9.075.375v-3.15c-3.1 0-5.275-.75-6.525-2.25-1.207-1.448-1.831-4.155-1.873-8.12l-.002-.43V149.7c0-5.1-.35-9.15-1.05-12.15-.7-3-1.8-5.4-3.3-7.2-1.4-1.7-3.425-3.125-6.075-4.275-2.65-1.15-6.275-1.725-10.875-1.725-5.4 0-10.125.875-14.175 2.625-3.905 1.687-7.044 4.421-9.415 8.2l-.26.425V87zm93.75 37.8c-3.7.7-7.725 1.225-12.075 1.575-4.35.35-9.025.525-14.025.525-2.625 0-5.327-.115-8.105-.345l-1.195-.105v3.15c3.2 0 5.4 1.075 6.6 3.225 1.156 2.07 1.755 5.23 1.798 9.48l.002.495v47.55c0 4.2-.625 7.05-1.875 8.55-1.2 1.44-3.252 2.189-6.157 2.246l-.368.004v3.15c2.2-.1 5.45-.225 9.75-.375s8.55-.225 12.75-.225c4.2 0 8.3.075 12.3.225 4 .15 7 .275 9 .375v-3.15c-3.1 0-5.275-.75-6.525-2.25-1.207-1.448-1.831-4.155-1.873-8.12l-.002-.43V124.8zm33.9-37.8c-4.6 0-8.4 1.7-11.4 5.1-3 3.4-4.5 8-4.5 13.8 0 4.6.675 9.45 2.025 14.55 1.35 5.1 2.925 10.525 4.725 16.275 1.8 5.75 3.45 11.8 4.95 18.15 1.412 5.976 2.336 12.24 2.774 18.793l.076 1.232h2.7l.076-1.232c.438-6.552 1.362-12.817 2.774-18.793 1.5-6.35 3.15-12.4 4.95-18.15 1.8-5.75 3.375-11.175 4.725-16.275 1.35-5.1 2.025-9.95 2.025-14.55 0-5.8-1.625-10.4-4.875-13.8-3.25-3.4-6.925-5.1-11.025-5.1zm-48.3 0c-5.2 0-9.225 1.075-12.075 3.225-2.85 2.15-4.275 5.375-4.275 9.675 0 4.3 1.425 7.525 4.275 9.675 2.85 2.15 6.875 3.225 12.075 3.225 5.2 0 9.225-1.075 12.075-3.225 2.85-2.15 4.275-5.375 4.275-9.675 0-4.3-1.425-7.525-4.275-9.675-2.85-2.15-6.875-3.225-12.075-3.225z"/>
</svg>