<svg xmlns="http://www.w3.org/2000/svg" viewBox="0 0 942 680">
  <g fill="#58bd86" fill-rule="evenodd">
    <path d="M548.563 665.77l40.127-24.44h75.229l-8.146 24.44h-107.21zM738.03 52.466h35.48L581.038 629.9l-44.524 27.11L738.03 52.466zM701.949 641.33l-29.541 17.99 5.996-17.99h23.545zM778.1 38.722h-23.51l29.49-17.959-5.98 17.959zM941.97.549H790.98l-.04-.06-.1.06h-.02l-.01.017-62.56 38.102.03.054h-.16L514.528 679.51h151.151l62.691-38.18h.01L941.97.549zM299.367 665.77l40.128-24.44h75.213l-8.145 24.44H299.367zM488.828 52.48h35.485L331.851 629.89l-44.537 27.12L488.828 52.48zm-36.334 588.85l-29.233 17.8 5.934-17.8h23.299zm76.401-602.594H505.21l29.717-18.097-6.032 18.097zM692.755.556H541.631l-.042-.07-62.695 38.179.042.071h-.013L265.335 679.51h151.134l.06-.18 62.392-38h-.002.248L692.755.556zM195.208 583.143l30.867-92.623 20.459 61.366-51.326 31.257zM80.039 52.48l138.792 416.31-30.462 91.411L19.102 52.48h60.937zM67.277 14.203l8.178 24.533H27.009l40.268-24.533zm183.79 551.28l75.554-226.715L213.895.556H62.764l-.003-.007-.013.007h-.021l.003.01L.066 38.729l.003.007h-.04l188.34 564.924.004-.01.015.07 62.681-38.19-.037-.155.035.108z"/>
  </g>
</svg>