<svg xmlns="http://www.w3.org/2000/svg" viewBox="0 0 95 19">
  <g fill="#FFF" fill-rule="nonzero">
    <path d="M3.438.006C2.926.042 2.49.27 2.245.63c-.152.226-.24.473-.288.82a4.461 4.461 0 00-.005.754c.085.88.42 1.994.989 3.291l.085.194-.108.134C2.146 6.786 1.452 7.961.91 9.23c-.358.838-.679 1.84-.843 2.633-.059.289-.077.442-.062.546a.643.643 0 00.427.522.43.43 0 00.18.021.616.616 0 00.316-.067.613.613 0 00.33-.456l.052-.268c.061-.315.205-.844.347-1.279.339-1.04.849-2.142 1.391-3.01.191-.305.59-.892.607-.892a.19.19 0 01.03.054c.013.03.046.084.071.12.026.037.072.108.104.16.1.162.22.262.391.325.08.03.098.032.214.032.153 0 .171-.006.335-.12a.598.598 0 00.276-.4.733.733 0 00-.015-.348 15.39 15.39 0 00-.344-.696c-.176-.343-.32-.635-.32-.649a.595.595 0 00-.049-.125 19.46 19.46 0 01-.74-1.82c-.254-.756-.363-1.258-.363-1.676 0-.222.014-.307.069-.434.035-.078.035-.078.093-.098.115-.038.37-.033.647.015.873.151 1.854.714 2.955 1.697.568.506 1.229 1.215 1.615 1.735.084.11.216.199.351.232.082.021.234.022.313.001a.676.676 0 00.488-.507c.035-.187-.013-.345-.156-.518a15.551 15.551 0 01-.172-.215 8.879 8.879 0 00-.386-.459l-.073-.078.05-.016a13.248 13.248 0 012.621-.464c.264-.021 1.081-.03 1.412-.015.899.04 1.684.157 2.439.361.152.041.37.105.418.123.023.008.021.013-.082.13-.201.227-.569.683-.607.754a.616.616 0 00-.008.588.722.722 0 00.558.33.549.549 0 00.3-.056.707.707 0 00.262-.233c.858-1.112 2.086-2.235 3.062-2.803.164-.096.415-.23.506-.27l.12-.053a3.41 3.41 0 011.207-.303c.162-.006.247.005.315.04.069.033.088.057.121.147.204.547-.214 2.131-1.027 3.898a.743.743 0 00-.057.152c0 .014-.144.307-.325.66-.18.349-.334.66-.344.69a.731.731 0 00-.011.325c.046.22.157.354.382.46.14.065.225.082.337.066a.603.603 0 00.485-.328c.108-.223.142-.287.175-.326.033-.04.037-.042.051-.025.06.066.459.673.628.955a15.284 15.284 0 011.724 4.312c.026.12.054.236.063.26.07.192.242.358.43.413a.86.86 0 00.402-.006.594.594 0 00.38-.393.76.76 0 00.018-.274 84.91 84.91 0 00-.26-.974c-.594-2.098-1.515-3.97-2.703-5.498l-.113-.146.09-.203c.497-1.132.828-2.169.945-2.967.044-.298.052-.403.052-.682 0-.464-.06-.753-.222-1.064-.239-.458-.69-.724-1.295-.766-.424-.029-.953.05-1.463.22-.527.175-1.02.42-1.596.79a11.1 11.1 0 00-1.381 1.079l-.09.085-.17-.062c-1.026-.369-2.225-.6-3.505-.677a17.013 17.013 0 00-1.796.012c-1.176.077-2.421.329-3.39.687l-.11.04-.08-.076c-.268-.251-.74-.64-1.066-.875A7.811 7.811 0 005.614.497 4.938 4.938 0 004.307.063a4.053 4.053 0 00-.869-.057zM49.913 5.003a4.602 4.602 0 00-1.092.208 4.086 4.086 0 00-1.967 1.413c-.612.816-.9 1.901-.848 3.2.057 1.438.52 2.491 1.425 3.244.644.534 1.376.828 2.28.915.217.02.737.023 1 .005.563-.038 1.065-.133 1.475-.28.43-.151.68-.335.78-.57a.76.76 0 00.017-.389c-.05-.248-.2-.627-.372-.931-.13-.228-.347-.5-.466-.582-.046-.032-.057-.035-.11-.031-.052.004-.07.011-.117.049-.114.09-.336.17-.633.224-.784.146-1.352.026-1.8-.379a1.496 1.496 0 01-.408-.575c-.232-.56-.243-1.48-.024-2.075a1.611 1.611 0 011.256-1.035 2.37 2.37 0 01.703.002c.285.053.52.126.635.197a.683.683 0 00.121.061c.176.056.421-.181.694-.673.225-.406.33-.71.34-.992.005-.136.002-.159-.02-.22-.083-.223-.314-.39-.738-.534a5.068 5.068 0 00-1.148-.233c-.149-.016-.858-.028-.983-.019zM57.854 5.006c-.854.073-1.58.342-2.208.819-.16.122-.458.395-.58.532-.609.685-.943 1.505-1.05 2.58-.021.206-.021 1.015 0 1.226.073.737.245 1.332.54 1.862.198.353.411.622.718.906.449.412.928.689 1.5.867.506.158 1.05.22 1.7.197.53-.018.935-.072 1.347-.177.65-.165 1.03-.39 1.154-.684.022-.054.025-.081.025-.218a.78.78 0 00-.038-.29 3.926 3.926 0 00-.442-.97c-.116-.176-.323-.406-.397-.44a.208.208 0 00-.076-.015c-.045 0-.064.01-.155.07-.148.103-.386.175-.77.234-.126.02-.194.023-.422.023-.241 0-.287-.002-.394-.023-.502-.099-.925-.4-1.152-.82-.216-.398-.306-1.017-.238-1.632.06-.542.23-.93.536-1.217.242-.228.522-.363.883-.428.16-.028.503-.026.673.005.295.053.56.139.672.215.077.052.13.064.205.044.132-.036.283-.188.46-.465.222-.35.38-.705.44-.984.068-.327.028-.493-.16-.664a1.167 1.167 0 00-.174-.13c-.33-.192-.91-.345-1.543-.408a11.604 11.604 0 00-1.054-.015zM65.638 5.007c-.571.049-1.045.172-1.488.386a3.7 3.7 0 00-1.35 1.12c-.432.591-.688 1.346-.777 2.3-.022.242-.03.842-.016 1.106.049.835.21 1.506.504 2.085.519 1.022 1.481 1.722 2.65 1.928.527.094 1.213.09 1.735-.01a3.728 3.728 0 001.95-.995c.631-.607 1-1.475 1.116-2.623.038-.373.048-.845.027-1.235-.089-1.656-.625-2.754-1.688-3.454-.492-.323-1.034-.511-1.716-.594a8.958 8.958 0 00-.947-.014zm.508 2.409c.25.032.474.14.667.318.42.389.619 1.003.597 1.85-.01.369-.05.642-.134.905-.142.44-.409.778-.747.942-.395.193-.92.147-1.258-.109-.366-.276-.577-.703-.662-1.336a6.55 6.55 0 01-.005-.917c.046-.37.133-.675.256-.902.148-.274.393-.524.624-.64.19-.097.445-.138.662-.111zM74.635 5.01c-.847.067-1.571.34-2.176.825-.868.693-1.33 1.675-1.44 3.063-.03.383-.024.955.017 1.36.11 1.112.483 1.995 1.108 2.623.61.615 1.345.971 2.24 1.084.467.058 1.04.043 1.488-.038.774-.14 1.427-.468 1.964-.984.681-.655 1.042-1.534 1.15-2.805.018-.215.018-1.055 0-1.261a7.437 7.437 0 00-.075-.611c-.155-.923-.483-1.623-1.01-2.161-.646-.658-1.469-1.02-2.49-1.096a8.017 8.017 0 00-.776 0zm.605 2.422c.515.11.921.556 1.081 1.19.063.25.084.424.093.755.018.822-.15 1.403-.52 1.786-.127.132-.21.193-.352.263a1.257 1.257 0 01-1.09 0 1.1 1.1 0 01-.35-.26c-.296-.31-.459-.747-.505-1.367-.043-.58.042-1.159.226-1.546.263-.551.707-.859 1.215-.841.07.002.16.011.202.02zM91.925 5.005c-.832.068-1.456.33-1.963.827a2.4 2.4 0 00-.729 1.397c-.037.247-.03.677.016.99.068.455.212.835.448 1.184.174.258.397.456.828.736.175.115.413.239.81.421.454.21.643.34.724.503.034.067.036.076.036.186 0 .109-.002.118-.035.184a.312.312 0 01-.167.159c-.211.099-.645.067-1.034-.072-.26-.094-.851-.417-1.161-.636a.78.78 0 00-.106-.068.46.46 0 00-.08.072c-.207.215-.414.724-.494 1.216-.014.086-.019.175-.018.36 0 .237.001.247.03.338.079.25.23.45.484.635.5.365 1.093.521 2.107.559 1.181.043 2.07-.248 2.609-.853.407-.456.648-1 .736-1.663.01-.068.022-.219.029-.337.04-.76-.154-1.347-.595-1.791a4.176 4.176 0 00-.369-.325c-.33-.261-.62-.427-1.266-.724-.387-.178-.497-.235-.59-.303-.153-.113-.22-.232-.21-.37.016-.203.133-.325.365-.382.124-.03.406-.032.584-.004.324.05.644.154 1.02.328l.135.064.03-.033c.14-.149.472-.917.576-1.327a1.96 1.96 0 00.067-.486c.002-.134 0-.143-.027-.194-.088-.164-.357-.303-.796-.41a6.716 6.716 0 00-1.212-.178c-.16-.009-.68-.011-.782-.003zM81.668 5.006c-.427.02-.647.078-.664.173C81 5.198 80.999 7.148 81 9.51c.004 4.281.004 4.298.025 4.322.053.058.193.103.422.132.2.027.604.042.911.034.576-.014.857-.058.965-.151l.045-.039.002-1.998.003-1.999 1.057 1.987c.596 1.119 1.07 1.998 1.087 2.014.06.058.223.102.496.133.206.022 1.01.033 1.255.016.42-.03.639-.09.708-.192l.024-.037V9.484c0-4.2 0-4.249-.021-4.283-.043-.07-.21-.126-.48-.16a11.381 11.381 0 00-1.376 0c-.27.034-.408.076-.467.137l-.03.032-.006 2.02-.005 2.023L84.6 7.29c-.832-1.61-1.023-1.974-1.06-2.012a.694.694 0 00-.273-.142c-.323-.093-1.08-.155-1.6-.13zM29.316 5.015a.37.37 0 00-.292.263c-.016.052-.018.39-.02 4.273L29 13.767l.028.033c.087.1.511.15 1.254.15.767 0 1.205-.058 1.265-.17.014-.026.016-.22.016-1.48v-1.45h.396l.625 1.393c.388.865.64 1.413.662 1.444.093.12.28.24.442.279.39.094.795-.005 1.34-.33.301-.18.643-.434.775-.579.119-.13.205-.267.196-.31a82.56 82.56 0 00-.827-1.337c-.453-.722-.826-1.318-.83-1.327-.001-.008.03-.037.082-.073.242-.169.471-.409.643-.669a3.08 3.08 0 00.464-1.31c.022-.178.026-.625.006-.786-.06-.488-.199-.86-.44-1.185a2.58 2.58 0 00-.381-.383c-.5-.385-1.2-.603-2.143-.667-.248-.016-3.185-.012-3.257.005zm2.88 2.277c.214.042.335.099.449.208.05.047.093.102.119.149.156.285.153.734-.006 1.03a.86.86 0 01-.347.326c-.192.094-.403.142-.69.154l-.158.006V7.258l.264.006c.201.005.288.011.369.028zM39.963 5.01a5.67 5.67 0 00-.585.043c-.101.018-.107.023-.131.114-.055.201-2.244 8.597-2.247 8.616-.005.032.065.064.228.106.188.048.364.068.7.081.304.012.658.001.857-.027.361-.05.576-.155.64-.312.009-.023.386-1.619.386-1.636 0-.002.457-.002 1.016-.001l1.016.003.211.829c.116.455.22.847.23.87.036.08.15.158.303.208.326.107.887.124 1.724.054.3-.024.45-.045.56-.074.095-.026.129-.045.129-.075 0-.038-2.212-8.708-2.225-8.723-.033-.036-.277-.061-.727-.077a58.895 58.895 0 00-2.085 0zm1.21 3.987l.286 1.318.007.03h-.662c-.364 0-.662-.004-.662-.009 0-.008.665-2.57.679-2.614.004-.014.015-.018.04-.016l.032.003.28 1.288z"/>
    <path d="M7.82 7.006c-.545.03-1.188.239-1.808.587-1.048.588-2.14 1.572-3.3 2.976-.514.62-.995 1.276-1.442 1.962-.173.266-.228.368-.255.477a.691.691 0 00.058.445c.091.18.334.331.552.344a.576.576 0 00.54-.288c.045-.082.271-.428.424-.65 1.037-1.515 2.34-2.954 3.346-3.699.71-.526 1.274-.795 1.83-.87.297-.04.84 0 1.12.085.517.156.816.486.95 1.058a4.5 4.5 0 01.066 1.46c-.093.61-.38 1.365-.833 2.19-.366.666-.791 1.309-1.277 1.933l-.176.225c-.008.01-.026.009-.097-.013a3.9 3.9 0 00-.548-.106 4.637 4.637 0 00-.787.001 4.577 4.577 0 00-1.852.627c-.049.032-.124.081-.17.109a.823.823 0 00-.273.285.624.624 0 00.06.667c.133.17.321.261.51.249a.627.627 0 00.313-.11c.354-.22.86-.412 1.261-.481.527-.09.922-.038 1.322.174.29.154.486.312.923.748.423.423.712.686.956.867.414.308.833.516 1.278.633.12.03.41.08.564.096.188.02.629.016.818-.005a3.515 3.515 0 001.694-.637c.3-.209.494-.38.978-.868.163-.163.472-.448.59-.544.418-.337.772-.485 1.21-.505.368-.016.85.086 1.28.274.071.031.242.115.38.186.138.072.275.139.302.148a.588.588 0 00.704-.304.603.603 0 00.095-.355.538.538 0 00-.08-.32c-.051-.091-.105-.141-.26-.244-.526-.35-1.28-.614-1.964-.69-.191-.022-.6-.022-.79 0a3.584 3.584 0 00-.617.13l-.144-.194c-1.062-1.414-1.816-2.795-2.069-3.794a2.943 2.943 0 01-.109-.856c.002-.72.116-1.221.356-1.552.28-.383.713-.559 1.43-.58a1.91 1.91 0 01.563.047c.826.173 1.863.887 2.945 2.026.828.873 1.649 1.908 2.318 2.924.171.26.25.354.346.412a.543.543 0 00.32.086c.197.001.33-.05.45-.176.184-.192.23-.47.122-.747-.049-.127-.362-.625-.663-1.052-.94-1.344-2.01-2.546-2.989-3.359-.989-.821-1.895-1.282-2.767-1.41a2.62 2.62 0 00-.446-.023c-.158 0-.347.006-.42.013-.621.062-1.089.209-1.49.466-.383.246-.671.57-.877.99-.193.393-.296.783-.352 1.325-.023.23-.026.964-.005 1.148.08.664.321 1.422.72 2.247.369.765.952 1.719 1.58 2.585.083.116.152.214.152.219a.683.683 0 01-.094.088c-.107.09-.25.229-.577.562-.357.365-.486.48-.728.647-.235.163-.49.283-.75.352-.225.06-.379.079-.675.079-.296 0-.45-.018-.674-.079-.26-.069-.516-.189-.75-.352-.23-.158-.37-.282-.667-.583a9.967 9.967 0 00-.45-.436 2.498 2.498 0 01-.283-.278c0-.005.041-.063.09-.129.868-1.149 1.55-2.318 1.946-3.33a6.423 6.423 0 00.41-1.542c.028-.198.027-.941 0-1.198-.054-.54-.156-.923-.348-1.32-.314-.65-.86-1.1-1.594-1.317a4.473 4.473 0 00-1.421-.156z"/>
    <path d="M8.399 10.004a.48.48 0 00-.147.057.526.526 0 00-.22.626.44.44 0 00.117.174.357.357 0 00.125.087c.084.042.119.051.188.052.094 0 .2-.03.291-.085A.494.494 0 009 10.512a.475.475 0 00-.155-.39.59.59 0 00-.21-.107.852.852 0 00-.235-.01zM16.312 10.012a.472.472 0 00-.234.199.618.618 0 00-.061.443c.025.1.05.14.136.216a.453.453 0 00.336.13c.096 0 .15-.012.232-.053a.515.515 0 00.275-.513.47.47 0 00-.277-.382.544.544 0 00-.254-.05c-.096-.004-.117-.002-.153.01zM19.362 13.006a.413.413 0 00-.293.223.477.477 0 00-.069.246c0 .165.06.278.202.376.25.172.715.62 1.011.97.084.098.099.112.158.14a.464.464 0 00.383-.005.311.311 0 00.133-.11.48.48 0 00.055-.537c-.019-.036-.073-.098-.222-.257-.512-.543-.76-.776-1.027-.965a.459.459 0 00-.331-.081zM5.5 13.004c-.105.012-.149.036-.323.17-.308.24-.848.78-1.047 1.048-.108.146-.124.184-.13.306a.503.503 0 00.111.351.17.17 0 00.088.068.663.663 0 00.21.053.41.41 0 00.291-.118c.21-.232.563-.589.736-.746.138-.124.193-.169.313-.253.115-.082.161-.13.201-.213a.461.461 0 00.05-.227.438.438 0 00-.043-.207.444.444 0 00-.387-.235.361.361 0 00-.07.003zM11.408 16.004a.508.508 0 00-.368.3.415.415 0 00-.028.278.544.544 0 00.358.4.433.433 0 00.137.018.438.438 0 00.232-.053.467.467 0 00.26-.443.471.471 0 00-.133-.352.355.355 0 00-.123-.093.665.665 0 00-.115-.044.76.76 0 00-.22-.011z"/>
  </g>
</svg>