<?xml version="1.0" encoding="utf-8"?>
<!-- Generator: Adobe Illustrator 23.0.6, SVG Export Plug-In . SVG Version: 6.00 Build 0)  -->
<svg version="1.1" id="Layer_1" xmlns="http://www.w3.org/2000/svg" xmlns:xlink="http://www.w3.org/1999/xlink" x="0px" y="0px"
	 viewBox="0 0 1500 1500" style="enable-background:new 0 0 1500 1500;" xml:space="preserve">
<style type="text/css">
	.st0{fill:#FFFFFF;}
	.st1{fill:#000FFF;}
	.st2{fill:#181C22;}
	.st3{fill:none;stroke:#000000;stroke-width:40;stroke-miterlimit:10;}
	.st4{fill:#0000FF;}
	
		.st5{clip-path:url(#SVGID_2_);fill:none;stroke:#FFFFFF;stroke-width:14.1804;stroke-linecap:round;stroke-linejoin:round;stroke-miterlimit:10;}
	.st6{fill:none;stroke:#FFFFFF;stroke-width:14.1804;stroke-linecap:round;stroke-linejoin:round;stroke-miterlimit:10;}
	.st7{fill:none;stroke:#000000;stroke-width:30;stroke-miterlimit:10;}
	.st8{fill:none;stroke:#000000;stroke-width:20;stroke-miterlimit:10;}
	.st9{fill:none;stroke:#000000;stroke-width:20;stroke-linecap:round;stroke-miterlimit:10;}
	.st10{fill:#C39E70;}
	.st11{fill:none;stroke:#C39E70;stroke-width:20;stroke-miterlimit:10;}
	.st12{fill:none;stroke:#FFFFFF;stroke-width:30;stroke-miterlimit:10;}
	.st13{fill:none;stroke:#FFFFFF;stroke-width:20;stroke-miterlimit:10;}
	.st14{fill:#181CD8;}
	.st15{fill:none;stroke:#FFFFFF;stroke-width:20;stroke-linecap:round;stroke-miterlimit:10;}
</style>
<g>
	<path d="M602.81,768.37c17.74-12.69,31.87-19.18,45.79-21c7.41-0.97,21,0.03,28.02,2.05c12.92,3.77,20.38,11.74,23.74,25.53
		c2.46,10.07,3.18,25.38,1.64,35.22c-2.09,13.32-8.2,29.56-17.77,47.3c6.97-1.79,14.38-2.8,22.21-2.8c5.38,0,10.33,0.4,14.88,1.11
		c0.88-1.99,1.73-3.98,2.52-5.93c5.43-13.46,8.61-24.97,10.28-37.2c0.67-4.77,0.64-22.69,0-28.89c-1.38-13.02-3.92-22.25-8.72-31.81
		c-7.87-15.69-21.51-26.56-39.86-31.79c-10.49-2.97-23.82-4.38-35.56-3.77c-13.64,0.72-29.74,5.77-45.25,14.15
		c-26.2,14.2-53.5,37.94-82.52,71.81c-12.87,14.97-24.89,30.76-36.07,47.33c-4.33,6.41-5.69,8.87-6.38,11.51
		c-0.82,3.2-0.23,7.49,1.46,10.72c2.28,4.36,8.36,8,13.79,8.31c5.64,0.31,10.82-2.36,13.51-6.95c1.13-1.97,6.79-10.33,10.61-15.69
		C545.07,821.05,577.63,786.34,602.81,768.37z"/>
	<path d="M1003.17,857.35c-1.2-3.05-9.05-15.07-16.56-25.38c-23.53-32.4-50.3-61.4-74.76-81.01c-24.74-19.82-47.4-30.94-69.22-34.02
		c-3.31-0.46-5.2-0.56-11.15-0.56c-3.95,0-8.67,0.15-10.51,0.31c-15.54,1.51-27.23,5.05-37.28,11.25
		c-9.56,5.92-16.77,13.77-21.92,23.87c-4.82,9.49-7.41,18.89-8.79,31.97c-0.59,5.56-0.67,23.25-0.13,27.69
		c1.62,13.15,5.99,27.81,13.01,43.66c2.95-0.27,6.03-0.44,9.29-0.44c9.38,0,18.17,1.45,26.31,3.97
		c-8.08-14.63-13.91-28.1-16.9-39.49c-2.13-8.05-2.74-12.72-2.72-20.66c0.03-17.38,2.9-29.46,8.9-37.43c7-9.25,17.82-13.48,35.76-14
		c6.31-0.18,8.64,0.03,14.07,1.13c20.66,4.18,46.61,21.41,73.65,48.89c20.71,21.05,41.25,46.02,57.99,70.53
		c4.28,6.26,6.26,8.54,8.64,9.95c2.56,1.54,4.72,2.08,8.02,2.08c4.92,0.03,8.23-1.23,11.23-4.26
		C1004.74,870.74,1005.86,864.05,1003.17,857.35z"/>
</g>
<g>
	<path d="M545.7,284.42c2.62,1.27,4.39,3.29,5.31,6.06c0.98,2.74,0.83,5.43-0.44,8.05c-1.02,2.14-2.6,3.75-4.72,4.84
		c-3.13,1.6-6.29,1.62-9.48,0.08l-35.18-17.16l-8.64,4.4l11.34,22.24c1.31,2.57,1.51,5.25,0.61,8.04c-0.91,2.79-2.67,4.85-5.3,6.19
		c-2.57,1.31-5.25,1.51-8.04,0.61c-2.79-0.91-4.83-2.64-6.15-5.22l-47.22-92.63c-1.31-2.57-1.52-5.25-0.61-8.04
		c0.91-2.79,2.65-4.83,5.22-6.15l25.51-13c10.96-5.59,22.34-6.49,34.14-2.71c11.77,3.87,20.45,11.28,26.03,22.25
		c4.28,8.39,5.75,17.23,4.42,26.5c-1.28,9.11-4.98,17.06-11.1,23.84L545.7,284.42z M482.93,271.81l16.03-8.17
		c5.76-2.94,9.66-7.53,11.69-13.78c2-6.16,1.52-12.16-1.45-17.97c-2.94-5.76-7.5-9.67-13.69-11.73c-6.22-1.97-12.21-1.49-17.97,1.45
		l-16.03,8.17L482.93,271.81z"/>
	<path d="M692.68,247.11c1.54,2.5,2,5.17,1.37,7.99c-0.68,2.9-2.27,5.12-4.77,6.66c-1.08,0.67-2.23,1.14-3.46,1.39
		c-2.15,0.45-4.22,0.23-6.19-0.64c-2.1-0.85-3.73-2.24-4.9-4.18l-16.23-25.88l-34.95,7.24l-4.52,30.17
		c-0.37,2.26-1.31,4.18-2.84,5.78c-1.53,1.6-3.37,2.62-5.52,3.07c-1.23,0.26-2.47,0.29-3.73,0.1c-2.91-0.42-5.22-1.83-6.94-4.24
		c-1.76-2.32-2.43-4.94-2.01-7.85l16.52-109.7c-0.02,0.2-0.02,0.07,0.02-0.39c0.07-0.27,0.12-0.47,0.16-0.61
		c-0.01-0.06,0.02-0.2,0.11-0.41c0.07-0.27,0.13-0.44,0.18-0.52c0.04-0.13,0.1-0.31,0.18-0.52c0.09-0.21,0.15-0.35,0.2-0.43
		c0.04-0.13,0.13-0.31,0.27-0.54c0.09-0.21,0.15-0.35,0.2-0.43c0.05-0.07,0.15-0.22,0.29-0.44c0.1-0.15,0.19-0.3,0.29-0.45
		c0.05-0.07,0.15-0.19,0.31-0.35c0.15-0.22,0.24-0.37,0.29-0.44c0.11-0.09,0.24-0.21,0.4-0.37c0.16-0.16,0.29-0.29,0.4-0.37
		c0.05-0.07,0.18-0.2,0.4-0.37c0.17-0.1,0.28-0.19,0.33-0.26c0.11-0.09,0.31-0.22,0.59-0.41c0.28-0.19,0.37-0.23,0.26-0.15
		c0.17-0.1,0.4-0.21,0.7-0.34c0.16-0.16,0.24-0.21,0.26-0.15c0.17-0.1,0.4-0.21,0.7-0.34c0.29-0.12,0.38-0.18,0.26-0.15
		c0.12-0.03,0.34-0.07,0.64-0.13c0.3-0.12,0.41-0.18,0.35-0.17c0.06-0.01,0.24-0.05,0.55-0.11c0.37-0.08,0.52-0.11,0.46-0.1
		c0.06-0.01,0.22-0.01,0.48,0c0.31-0.06,0.49-0.1,0.55-0.11l0.39,0.02c0.32,0,0.55,0.02,0.68,0.05c-0.13-0.03-0.01-0.03,0.39,0.02
		c0.32,0,0.55,0.02,0.69,0.05l0.09-0.02c-0.14-0.03-0.04-0.02,0.3,0.04c0.27,0.07,0.47,0.13,0.61,0.16
		c0.07,0.05,0.25,0.11,0.52,0.18c0.27,0.07,0.44,0.1,0.5,0.09c0.07,0.05,0.22,0.12,0.43,0.2c0.28,0.13,0.45,0.19,0.52,0.18
		c0.09,0.11,0.24,0.21,0.45,0.29c0.21,0.09,0.35,0.15,0.43,0.2c0.15,0.1,0.3,0.2,0.45,0.29c0.22,0.15,0.37,0.25,0.44,0.29
		c0.07,0.05,0.19,0.15,0.35,0.31c0.22,0.15,0.38,0.27,0.47,0.38c0.07,0.05,0.19,0.15,0.35,0.31c0.16,0.16,0.29,0.29,0.37,0.4
		c0.07,0.05,0.2,0.19,0.37,0.4c0.16,0.16,0.25,0.27,0.26,0.33c0.08,0.11,0.22,0.28,0.39,0.5c0.21,0.41,0.27,0.52,0.17,0.35
		L692.68,247.11z M646.51,213.2l-15.3-24.63l-4.35,28.7L646.51,213.2z"/>
	<path d="M752.11,259.79c-2.88-0.17-5.3-1.34-7.25-3.53c-1.95-2.19-2.84-4.72-2.68-7.6l5.9-103.62c0.17-2.94,1.35-5.39,3.53-7.35
		c2.19-1.95,4.72-2.84,7.6-2.68l10.16,0.58c16.86,0.96,30.91,7.77,42.14,20.42c11.29,12.59,16.46,27.32,15.5,44.18l-0.15,2.54
		c-0.96,16.86-7.77,30.94-20.42,42.23c-12.59,11.23-27.32,16.37-44.18,15.41L752.11,259.79z M763.94,239.24
		c10.91,0.56,20.44-2.86,28.6-10.25c8.15-7.33,12.54-16.49,13.17-27.46l0.15-2.54c0.62-10.97-2.7-20.56-9.96-28.77
		c-7.27-8.21-16.35-12.69-27.25-13.44L763.94,239.24z"/>
	<path d="M873.55,272.66c-1.46-2.54-1.82-5.2-1.07-7.99l26.94-100.13c0.75-2.79,2.39-4.92,4.93-6.38c2.54-1.46,5.2-1.82,7.99-1.07
		c2.85,0.77,4.98,2.41,6.38,4.93c1.46,2.54,1.82,5.2,1.07,7.99l-26.94,100.13c-0.75,2.79-2.39,4.92-4.93,6.38
		c-2.48,1.48-5.14,1.84-7.99,1.07C877.14,276.85,875.02,275.2,873.55,272.66z"/>
	<path d="M975.78,314.44c-11.64-5.92-19.13-14.67-22.47-26.23c-3.4-11.59-1.94-23.6,4.39-36.02l13.88-27.28
		c6.29-12.36,15.14-20.61,26.54-24.74c11.32-4.1,22.8-3.19,34.43,2.73l0.34,0.17c11.64,5.92,19.13,14.67,22.47,26.23
		c3.37,11.65,1.91,23.66-4.39,36.02l-13.88,27.28c-6.32,12.42-15.17,20.67-26.54,24.74c-11.32,4.1-22.8,3.19-34.43-2.73
		L975.78,314.44z M1022.95,221.78c-6.38-3.25-12.48-3.71-18.31-1.39c-5.8,2.26-10.53,6.97-14.17,14.13l-13.88,27.28
		c-3.65,7.16-4.69,13.78-3.13,19.86c1.58,6.02,5.57,10.65,11.94,13.9l0.34,0.17c6.38,3.25,12.47,3.74,18.27,1.48
		c5.83-2.32,10.56-7.06,14.21-14.22l13.88-27.28c3.65-7.16,4.68-13.75,3.09-19.77c-1.56-6.08-5.52-10.74-11.9-13.99L1022.95,221.78z
		"/>
</g>
<g>
	<path d="M311.32,1159.84c-0.67,2.84-2.25,5.01-4.75,6.51c-2.46,1.55-5.12,2-7.95,1.33c-2.31-0.53-4.23-1.71-5.75-3.55
		c-2.25-2.71-2.96-5.78-2.15-9.23l9.04-38.08l-6.19-7.47l-19.21,15.93c-2.22,1.84-4.79,2.63-7.71,2.36
		c-2.92-0.27-5.32-1.54-7.2-3.82c-1.84-2.22-2.63-4.79-2.36-7.71c0.27-2.92,1.52-5.3,3.74-7.14l80.04-66.37
		c2.22-1.84,4.79-2.63,7.71-2.36c2.92,0.27,5.3,1.52,7.14,3.74l18.27,22.04c7.85,9.47,11.23,20.38,10.12,32.72
		c-1.2,12.33-6.53,22.42-16,30.28c-7.25,6.01-15.55,9.38-24.89,10.12c-9.17,0.75-17.73-1.12-25.69-5.61L311.32,1159.84z
		 M309.87,1095.83l11.48,13.85c4.13,4.98,9.46,7.77,16,8.38c6.45,0.6,12.19-1.18,17.22-5.35c4.98-4.13,7.79-9.44,8.44-15.93
		c0.56-6.5-1.22-12.24-5.35-17.22l-11.48-13.85L309.87,1095.83z"/>
	<path d="M443.49,1270.97c-0.77,2.84-2.41,4.99-4.9,6.46c-2.58,1.48-5.29,1.84-8.13,1.07c-1.23-0.33-2.36-0.86-3.38-1.58
		c-1.8-1.27-3.05-2.92-3.76-4.96c-0.82-2.11-0.92-4.26-0.3-6.44l7.8-29.53l-29.17-20.57l-25.12,17.32c-1.9,1.27-3.95,1.9-6.16,1.88
		c-2.21-0.02-4.22-0.67-6.01-1.93c-1.03-0.72-1.9-1.61-2.62-2.66c-1.68-2.41-2.23-5.07-1.65-7.96c0.49-2.88,1.95-5.16,4.36-6.84
		l91.38-62.9c-0.16,0.12-0.06,0.03,0.29-0.25c0.25-0.13,0.43-0.23,0.56-0.3c0.04-0.05,0.16-0.12,0.37-0.2
		c0.25-0.13,0.41-0.21,0.5-0.22c0.12-0.07,0.29-0.14,0.5-0.22c0.21-0.08,0.36-0.13,0.45-0.15c0.12-0.07,0.32-0.12,0.58-0.17
		c0.21-0.08,0.36-0.13,0.45-0.14c0.09-0.02,0.26-0.05,0.52-0.09c0.17-0.03,0.35-0.06,0.52-0.09c0.09-0.01,0.24-0.02,0.47-0.01
		c0.26-0.05,0.44-0.08,0.53-0.09c0.14,0.02,0.32,0.04,0.55,0.04c0.23,0.01,0.41,0.02,0.55,0.04c0.09-0.01,0.27,0,0.55,0.04
		c0.19,0.06,0.33,0.08,0.42,0.06c0.14,0.02,0.37,0.07,0.7,0.15c0.33,0.08,0.42,0.11,0.29,0.09c0.19,0.06,0.43,0.15,0.72,0.28
		c0.23,0.01,0.32,0.03,0.28,0.09c0.19,0.06,0.43,0.15,0.72,0.28c0.29,0.13,0.39,0.16,0.29,0.09c0.1,0.07,0.28,0.2,0.54,0.38
		c0.29,0.13,0.41,0.18,0.36,0.14c0.05,0.04,0.2,0.14,0.46,0.33c0.31,0.22,0.44,0.31,0.38,0.27c0.05,0.04,0.16,0.15,0.33,0.35
		c0.26,0.18,0.41,0.29,0.46,0.33l0.25,0.29c0.22,0.23,0.36,0.41,0.43,0.53c-0.07-0.12,0.02-0.03,0.25,0.29
		c0.22,0.23,0.36,0.41,0.43,0.53l0.08,0.05c-0.07-0.12-0.01-0.04,0.18,0.24c0.13,0.25,0.23,0.43,0.3,0.56
		c0.01,0.09,0.09,0.25,0.22,0.5c0.13,0.25,0.22,0.39,0.28,0.42c0.01,0.09,0.06,0.24,0.14,0.45c0.1,0.3,0.17,0.47,0.22,0.5
		c-0.02,0.14,0.01,0.31,0.09,0.53c0.08,0.21,0.13,0.36,0.15,0.45c0.03,0.17,0.06,0.35,0.09,0.52c0.05,0.26,0.08,0.44,0.09,0.52
		c0.01,0.09,0.02,0.24,0.01,0.47c0.04,0.26,0.06,0.46,0.04,0.6c0.01,0.09,0.02,0.24,0.01,0.47c-0.01,0.23-0.02,0.41-0.04,0.55
		c0.01,0.09,0,0.27-0.04,0.55c-0.01,0.23-0.03,0.36-0.06,0.42c-0.02,0.14-0.05,0.35-0.1,0.62c-0.15,0.43-0.2,0.55-0.14,0.36
		L443.49,1270.97z M436.7,1214.09l7.53-28l-23.92,16.43L436.7,1214.09z"/>
	<path d="M553.69,1335.18c-15.81-5.94-27.22-16.63-34.23-32.07c-7.01-15.44-7.54-31.07-1.6-46.88l0.89-2.38
		c5.96-15.87,16.66-27.31,32.11-34.32c15.42-6.95,31.04-7.46,46.85-1.52l5.55,2.09c2.76,1.04,4.75,2.89,5.96,5.56
		c1.23,2.61,1.33,5.3,0.29,8.06c-1.04,2.76-2.89,4.75-5.56,5.96c-2.67,1.21-5.38,1.3-8.15,0.26l-5.55-2.09
		c-10.35-3.89-20.57-3.54-30.68,1.05c-10.09,4.53-17.08,11.99-20.99,22.4l-0.89,2.38c-3.89,10.35-3.54,20.57,1.05,30.68
		c4.59,10.11,12.05,17.1,22.4,20.99l5.55,2.09c2.76,1.04,4.75,2.89,5.96,5.56c1.21,2.67,1.31,5.36,0.29,8.06
		c-1.04,2.76-2.89,4.75-5.56,5.96s-5.38,1.3-8.15,0.26L553.69,1335.18z"/>
	<path d="M694.23,1364.18c-16.76-2.07-30.36-9.78-40.8-23.15c-10.44-13.37-14.62-28.43-12.56-45.2l0.31-2.52
		c2.07-16.82,9.79-30.45,23.16-40.89c13.36-10.37,28.42-14.53,45.18-12.46l5.89,0.73c2.93,0.36,5.29,1.7,7.1,4.01
		c1.81,2.25,2.54,4.84,2.18,7.76c-0.36,2.93-1.7,5.29-4.01,7.1c-2.31,1.8-4.93,2.52-7.86,2.16l-5.89-0.73
		c-10.97-1.35-20.83,1.39-29.57,8.22c-8.74,6.77-13.79,15.67-15.15,26.7l-0.31,2.52c-1.35,10.97,1.39,20.83,8.22,29.57
		c6.83,8.75,15.73,13.8,26.7,15.15l5.89,0.73c2.93,0.36,5.29,1.7,7.1,4.01c1.8,2.31,2.53,4.9,2.18,7.76c-0.36,2.93-1.7,5.3-4.01,7.1
		c-2.31,1.8-4.93,2.52-7.86,2.16L694.23,1364.18z"/>
	<path d="M821.85,1361.51c-12.96,1.58-24.06-1.49-33.29-9.21c-9.29-7.72-14.78-18.5-16.48-32.33l-3.71-30.38
		c-1.68-13.77,1.05-25.56,8.2-35.35c7.1-9.72,17.13-15.38,30.09-16.96l0.37-0.04c12.96-1.58,24.06,1.49,33.29,9.21
		c9.3,7.78,14.79,18.56,16.48,32.33l3.71,30.38c1.69,13.83-1.04,25.62-8.2,35.35c-7.1,9.72-17.13,15.38-30.09,16.96L821.85,1361.51z
		 M809.24,1258.31c-7.1,0.87-12.43,3.89-15.97,9.07c-3.55,5.12-4.84,11.66-3.86,19.64l3.71,30.38c0.97,7.98,3.8,14.05,8.49,18.22
		c4.68,4.11,10.57,5.73,17.67,4.86l0.37-0.04c7.1-0.87,12.43-3.86,15.98-8.97c3.54-5.18,4.83-11.75,3.85-19.73l-3.71-30.38
		c-0.98-7.98-3.8-14.02-8.48-18.13c-4.68-4.17-10.58-5.82-17.68-4.95L809.24,1258.31z"/>
	<path d="M974.86,1322.17c-12.12,4.88-23.63,4.77-34.54-0.31c-10.97-5.06-19.06-14.06-24.26-26.99l-11.43-28.39
		c-5.18-12.87-5.58-24.96-1.19-36.27c4.35-11.22,12.58-19.28,24.69-24.15l0.35-0.14c12.11-4.88,23.63-4.77,34.54,0.31
		c10.99,5.12,19.08,14.11,24.26,26.99l11.43,28.39c5.2,12.93,5.6,25.02,1.2,36.27c-4.35,11.23-12.58,19.28-24.7,24.15
		L974.86,1322.17z M936.05,1225.72c-6.64,2.67-11,6.97-13.09,12.88c-2.11,5.86-1.66,12.51,1.34,19.97l11.43,28.39
		c3,7.46,7.3,12.59,12.9,15.42c5.58,2.76,11.69,2.81,18.33,0.14l0.35-0.14c6.64-2.67,11.02-6.94,13.12-12.79
		c2.09-5.92,1.63-12.6-1.37-20.06l-11.43-28.39c-3-7.45-7.29-12.56-12.87-15.33c-5.6-2.82-11.72-2.9-18.36-0.22L936.05,1225.72z"/>
	<path d="M1127.81,1226.6l-74.21-31.43l38.8,51.43c1.78,2.36,2.46,4.98,2.06,7.89c-0.41,2.9-1.76,5.22-4.07,6.96
		c-2.36,1.78-4.98,2.46-7.89,2.06c-2.9-0.41-5.24-1.79-7.02-4.14l-62.62-83c-1.47-1.95-2.2-4.12-2.18-6.49
		c0.07-2.41,0.82-4.55,2.24-6.41c1.48-1.9,3.4-3.16,5.77-3.77c2.28-0.62,4.52-0.46,6.73,0.47l74.21,31.43l-38.8-51.42
		c-1.78-2.36-2.46-4.99-2.06-7.89c0.41-2.9,1.76-5.22,4.07-6.96c2.36-1.78,4.98-2.46,7.89-2.06c2.9,0.41,5.24,1.79,7.02,4.14
		l62.62,83c1.47,1.95,2.18,4.14,2.11,6.55c-0.02,2.37-0.77,4.51-2.24,6.41c-0.55,0.73-1.2,1.38-1.95,1.95
		C1135.02,1227.76,1131.53,1228.19,1127.81,1226.6z"/>
	<path d="M1209.84,1154.73c-1.84,2.31-4.21,3.63-7.12,3.96c-2.87,0.28-5.44-0.47-7.7-2.27c-2.31-1.84-3.65-4.18-4.02-7.05
		c-0.28-2.87,0.49-5.46,2.33-7.77l23.61-29.71c1.21-1.52,1.68-3.27,1.41-5.26c-0.18-1.99-1.06-3.61-2.63-4.86
		c-1.52-1.21-3.27-1.68-5.25-1.41c-1.99,0.18-3.59,1.04-4.8,2.56l-4.1,5.16c-7.66,9.63-17.62,15.15-29.88,16.56
		c-12.26,1.4-23.21-1.72-32.84-9.38c-9.63-7.65-15.15-17.61-16.56-29.88c-1.45-12.3,1.65-23.27,9.31-32.9l12.48-15.7
		c1.84-2.31,4.21-3.63,7.12-3.96c2.87-0.28,5.46,0.49,7.77,2.33c2.26,1.8,3.58,4.13,3.95,6.99c0.33,2.91-0.42,5.52-2.25,7.83
		l-12.48,15.7c-4.02,5.06-5.67,10.82-4.93,17.25c0.75,6.53,3.65,11.8,8.71,15.83c5.06,4.02,10.86,5.66,17.39,4.92
		c6.44-0.74,11.67-3.64,15.7-8.7l4.1-5.16c4.84-6.1,11.15-9.59,18.91-10.47c7.76-0.89,14.69,1.09,20.79,5.93
		c6.15,4.88,9.66,11.21,10.55,18.97c0.89,7.76-1.09,14.69-5.93,20.79L1209.84,1154.73z"/>
</g>
<g>
	<path d="M1249.3,1027.39c-2.07,0-4.17-0.48-6.14-1.48c-6.66-3.4-9.3-11.55-5.9-18.21c39.48-77.32,59.49-160.85,59.49-248.27
		c0-88.09-21.44-175.63-62.01-253.14c-39.27-75.04-96.42-140.95-165.27-190.61c-6.06-4.37-7.43-12.83-3.06-18.89
		c4.37-6.06,12.83-7.43,18.89-3.06c72.24,52.1,132.21,121.27,173.42,200.01c42.58,81.37,65.09,173.24,65.09,265.69
		c0,91.74-21.01,179.41-62.45,260.58C1258.97,1024.7,1254.22,1027.39,1249.3,1027.39z"/>
</g>
<g>
	<path d="M250.71,1027.39c-4.92,0-9.67-2.7-12.06-7.38c-41.44-81.17-62.45-168.84-62.45-260.58c0-92.45,22.51-184.32,65.09-265.69
		C282.49,415,342.46,345.84,414.7,293.74c6.06-4.37,14.52-3,18.89,3.06c4.37,6.06,3,14.52-3.06,18.89
		c-68.85,49.66-126.01,115.57-165.28,190.61c-40.56,77.51-62.01,165.04-62.01,253.14c0,87.42,20.02,170.95,59.49,248.27
		c3.4,6.66,0.76,14.81-5.9,18.21C254.88,1026.91,252.78,1027.39,250.71,1027.39z"/>
</g>
<g>
	<path d="M1047.01,841.2c-2.08-8.13-5.38-20.94-6.33-24.35c-14.46-52.45-36.87-99.26-65.78-137.46l-2.74-3.64l2.18-5.08
		c12.1-28.3,20.15-54.22,23-74.17c1.08-7.46,1.28-10.07,1.28-17.05c0-11.61-1.46-18.84-5.41-26.61
		c-5.82-11.43-16.79-18.1-31.51-19.15c-10.33-0.72-23.2,1.26-35.61,5.49c-12.82,4.38-24.84,10.51-38.84,19.77
		c-10.56,7.02-24.18,17.92-33.61,26.97l-2.2,2.13l-3.86-1.44l29.28-140.12c0,0-38.08-32.22-134.02-31.49
		c-95.94-0.73-134.02,31.49-134.02,31.49l29.2,139.74c-0.74,0.27-1.49,0.54-2.22,0.81l-2.67,1.03l-1.95-1.92
		c-6.51-6.28-18.02-16-25.94-21.87c-10.05-7.43-19.56-13.25-29.87-18.3c-11.46-5.59-20.48-8.69-31.79-10.84
		c-6.56-1.23-15.31-1.82-21.15-1.44c-12.46,0.9-23.1,6.61-29.05,15.64c-3.69,5.64-5.82,11.82-7,20.51
		c-0.54,3.9-0.62,13.84-0.13,18.84c2.08,21.97,10.23,49.84,24.07,82.27l2.08,4.85l-2.64,3.36c-18.79,24.05-35.66,53.43-48.86,85.11
		c-8.72,20.95-16.51,45.99-20.51,65.83c-1.44,7.2-1.87,11.05-1.51,13.64c0.82,6.05,4.67,10.9,10.38,13.05
		c1.26,0.46,1.97,0.56,4.38,0.54c3.54-0.05,5-0.36,7.69-1.69c4.13-2,7.02-6.08,8.02-11.38c0.28-1.41,0.85-4.41,1.28-6.72
		c1.49-7.87,4.97-21.1,8.43-31.97c8.25-26,20.66-53.55,33.87-75.24c4.64-7.64,14.36-22.3,14.77-22.3c0.08,0,0.41,0.62,0.72,1.36
		c0.33,0.74,1.13,2.1,1.74,3c0.62,0.92,1.74,2.69,2.51,3.97c2.44,4.08,5.36,6.56,9.54,8.15c1.95,0.72,2.38,0.79,5.2,0.79
		c3.72,0,4.15-0.15,8.15-3.03c3.95-2.85,5.72-5.49,6.72-10c0.56-2.56,0.41-6.18-0.38-8.69c-0.31-0.95-4.05-8.77-8.36-17.38
		c-4.28-8.59-7.79-15.9-7.79-16.23c0-0.33-0.54-1.74-1.18-3.13c-5.72-12.25-13.84-32.79-18-45.48c-6.2-18.92-8.84-31.48-8.84-41.92
		c0-5.56,0.33-7.69,1.67-10.84c0.85-1.97,0.85-1.97,2.26-2.46c2.82-0.95,9.02-0.82,15.77,0.38c21.23,3.77,45.09,17.84,71.91,42.4
		c10.74,9.84,22.82,22.72,32.1,34.08c-44.04,0.19-64.85-19.3-64.85-19.3c-24.9-21.97-46.14,43.21,59.32,43.21l106.92,23.88
		l106.92-23.88c105.46,0,84.22-65.18,59.32-43.21c0,0-21.15,19.79-65.92,19.28c20.29-24.96,46.65-49.01,68.05-61.8
		c4-2.41,10.1-5.74,12.31-6.74c0.72-0.33,2.03-0.92,2.95-1.33c9.9-4.51,20.25-7.18,29.35-7.56c3.95-0.15,6,0.1,7.67,0.97
		c1.67,0.85,2.13,1.44,2.95,3.69c4.95,13.66-5.2,53.27-25,97.44c-0.77,1.72-1.38,3.41-1.38,3.79c0,0.36-3.51,7.69-7.92,16.51
		c-4.36,8.72-8.13,16.48-8.36,17.25c-0.67,2.18-0.79,5.67-0.28,8.13c1.13,5.51,3.82,8.84,9.31,11.49c3.38,1.64,5.46,2.05,8.2,1.67
		c5.49-0.77,9.64-3.67,11.79-8.2c2.64-5.59,3.46-7.18,4.26-8.15c0.82-1,0.9-1.05,1.26-0.64c1.46,1.67,11.15,16.84,15.28,23.89
		c18.61,31.89,34.25,72.12,41.94,107.8c0.64,2.97,1.33,5.9,1.54,6.49c1.69,4.79,5.9,8.95,10.46,10.33c2.51,0.74,7.43,0.69,9.79-0.15
		c4.49-1.59,7.84-5.15,9.23-9.82C1047.09,846.23,1047.32,842.49,1047.01,841.2z"/>
	<path d="M655.23,795.57c-2.03-0.49-7.13-0.72-8.69-0.38c-2.03,0.44-3.72,1.08-5.43,2.08c-7.74,4.49-11.38,14.72-8.15,23.07
		c1,2.59,2,4.08,4.33,6.41c1.62,1.62,2.36,2.15,4.61,3.23c3.13,1.51,4.41,1.87,6.97,1.9c3.46,0.03,7.41-1.1,10.77-3.13
		c5.49-3.28,8.77-8.64,9.1-14.84c0.33-5.67-1.72-10.74-5.74-14.36C661.28,798.01,657.67,796.16,655.23,795.57z"/>
	<path d="M841.48,796.85c-2.9-1.33-4.69-1.69-9.1-1.82c-3.41-0.1-4.18-0.05-5.46,0.38c-3.1,1.03-6.38,3.82-8.36,7.08
		c-2.61,4.33-3.51,10.64-2.2,15.79c0.9,3.59,1.79,5,4.87,7.72c3.87,3.38,7,4.59,12.02,4.61c3.44,0.03,5.36-0.41,8.28-1.87
		c6.69-3.33,10.84-11.1,9.84-18.28C850.51,804.13,847.1,799.44,841.48,796.85z"/>
	<path d="M961.1,890.71c-18.36-18.71-27.25-26.74-36.81-33.25c-3.46-2.36-8.1-3.46-11.84-2.79c-4.51,0.82-7.92,3.31-10.49,7.69
		c-1.72,2.92-2.49,5.51-2.49,8.46c-0.03,5.69,2.15,9.59,7.23,12.97c8.95,5.92,25.64,21.3,36.25,33.35c3,3.41,3.54,3.87,5.67,4.84
		c4.05,1.85,9.56,1.79,13.72-0.15c2.23-1.05,3.08-1.74,4.74-3.79c4.61-5.69,5.33-12.48,2-18.48
		C968.38,898.3,966.46,896.17,961.1,890.71z"/>
	<path d="M572.68,855.3c-0.77-0.08-1.74-0.18-2.18-0.23c-0.41-0.05-1.54,0-2.49,0.13c-3.72,0.41-5.28,1.23-11.46,5.82
		c-10.92,8.15-30.1,26.64-37.15,35.76c-3.85,5-4.41,6.28-4.59,10.46c-0.23,4.59,1.03,8.43,3.92,12c1.05,1.33,1.54,1.69,3.1,2.33
		c2.33,0.97,5.72,1.79,7.43,1.79c3.95,0,8.08-1.59,10.36-4.02c7.46-7.92,19.97-20.12,26.12-25.48c4.87-4.23,6.84-5.77,11.1-8.64
		c4.08-2.79,5.72-4.46,7.13-7.28c1.31-2.59,1.77-4.59,1.77-7.74c0-2.85-0.44-4.92-1.54-7.08
		C582.22,859.15,577.3,855.82,572.68,855.3z"/>
</g>
<g>
	<path d="M769.3,980.2c-1.81-0.36-3.54-1.09-5.06-2.15c-1.66-1.15-3.35-2.75-4.79-4.71c-5.11,1.27-8.93,1.65-15.9,1.65
		c-7.41,0-11.25-0.44-16.87-1.9c-5.37-1.38-10.66-3.6-15.64-6.54c-6.61,7.16-15.22,14.85-26.59,20.65c0.29,0.21,0.57,0.42,0.85,0.62
		c10.36,7.43,20.82,12.43,31.97,15.25c2.97,0.74,10.23,1.95,14.1,2.33c4.69,0.46,15.72,0.38,20.46-0.13
		c12.67-1.36,23.54-4.65,34.14-10.4C781.07,987.16,775.52,981.44,769.3,980.2z"/>
	<path d="M602.81,768.37c17.74-12.69,31.87-19.18,45.79-21c7.41-0.97,21,0.03,28.02,2.05c12.92,3.77,20.38,11.74,23.74,25.53
		c2.46,10.07,3.18,25.38,1.64,35.22c-2.09,13.32-8.2,29.56-17.77,47.3c6.97-1.79,14.38-2.8,22.21-2.8c5.38,0,10.33,0.4,14.88,1.11
		c0.88-1.99,1.73-3.98,2.52-5.93c5.43-13.46,8.61-24.97,10.28-37.2c0.67-4.77,0.64-22.69,0-28.89c-1.38-13.02-3.92-22.25-8.72-31.81
		c-7.87-15.69-21.51-26.56-39.86-31.79c-10.49-2.97-23.82-4.38-35.56-3.77c-13.64,0.72-29.74,5.77-45.25,14.15
		c-26.2,14.2-53.5,37.94-82.52,71.81c-12.87,14.97-24.89,30.76-36.07,47.33c-4.33,6.41-5.69,8.87-6.38,11.51
		c-0.82,3.2-0.23,7.49,1.46,10.72c2.28,4.36,8.36,8,13.79,8.31c5.64,0.31,10.82-2.36,13.51-6.95c1.13-1.97,6.79-10.33,10.61-15.69
		C545.07,821.05,577.63,786.34,602.81,768.37z"/>
	<path d="M1003.17,857.35c-1.2-3.05-9.05-15.07-16.56-25.38c-23.53-32.4-50.3-61.4-74.76-81.01c-24.74-19.82-47.4-30.94-69.22-34.02
		c-3.31-0.46-5.2-0.56-11.15-0.56c-3.95,0-8.67,0.15-10.51,0.31c-15.54,1.51-27.23,5.05-37.28,11.25
		c-9.56,5.92-16.77,13.77-21.92,23.87c-4.82,9.49-7.41,18.89-8.79,31.97c-0.59,5.56-0.67,23.25-0.13,27.69
		c1.62,13.15,5.99,27.81,13.01,43.66c2.95-0.27,6.03-0.44,9.29-0.44c9.38,0,18.17,1.45,26.31,3.97
		c-8.08-14.63-13.91-28.1-16.9-39.49c-2.13-8.05-2.74-12.72-2.72-20.66c0.03-17.38,2.9-29.46,8.9-37.43c7-9.25,17.82-13.48,35.76-14
		c6.31-0.18,8.64,0.03,14.07,1.13c20.66,4.18,46.61,21.41,73.65,48.89c20.71,21.05,41.25,46.02,57.99,70.53
		c4.28,6.26,6.26,8.54,8.64,9.95c2.56,1.54,4.72,2.08,8.02,2.08c4.92,0.03,8.23-1.23,11.23-4.26
		C1004.74,870.74,1005.86,864.05,1003.17,857.35z"/>
</g>
<path d="M900.8,939.04c-3.04-4.82-8.3-7.62-13.81-7.62c-1.44,0-2.9,0.19-4.33,0.59c-3.87,1.07-7.89,1.61-11.93,1.61
	c-16.56,0-29.07-8.66-32.32-14.51c-10.73-19.37-32.98-40.06-63.26-40.06c-17.93,0-28.56,5.78-34.36,10.7
	c-5.8-4.92-16.43-10.7-34.36-10.7c-30.28,0-52.53,20.69-63.26,40.06c-3.24,5.85-15.76,14.51-32.32,14.51
	c-4.04,0-8.05-0.54-11.93-1.61c-1.44-0.4-2.89-0.59-4.33-0.59c-5.51,0-10.77,2.79-13.81,7.62c-3.84,6.08-3.24,13.96,1.47,19.4
	c1.05,1.21,5.07,5.48,12.67,9.44c9.55,4.97,20.74,7.49,33.27,7.49c11.07,0,23.09-2.03,35.74-6.02c18.9-5.78,29.77-19.43,37.71-29.4
	c4.45-5.59,9.05-11.37,11.84-11.37c0.54,0,1.51,0.1,3.02,0.59c1.63,0.53,3.33,0.8,5.04,0.8c0.38,0,0.75-0.01,1.13-0.04
	c0.13-0.01,0.55-0.04,1.19-0.1c-0.8,2.59-0.85,5.06-0.19,7.71c1.79,6.97,6.77,12.31,13.2,14.23c1.62,0.46,2.74,0.62,5.02,0.64
	c3.46,0.05,5.49-0.41,8.59-1.9c2.69-1.31,4.18-2.44,5.85-4.46c2.67-3.23,3.77-6.54,3.77-11.31c0-1.74-0.19-3.32-0.54-4.79
	c0.17,0.01,0.34,0.02,0.51,0.02c1.71,0,3.41-0.27,5.04-0.8c1.51-0.49,2.47-0.59,3.02-0.59c2.79,0,7.39,5.78,11.84,11.37
	c2.4,3.02,5.08,6.38,8.17,9.75c6.02,3.66,14.46,9.41,23.4,17.37c1.95,0.84,3.99,1.62,6.14,2.27c3.66,1.16,7.25,2.13,10.8,2.95
	c6.57-4.6,16.68-8.96,32.31-11.38c5.73-0.89,11.16-1.33,16.16-1.33c7.63,0,13.72,1.03,18.55,2.54c2.07-1.7,3.34-3.07,3.86-3.67
	C904.04,953.01,904.64,945.13,900.8,939.04z"/>
<path d="M900.66,980.51c0,0-7.41-10.93-37.83-6.22c-30.42,4.71-33.03,16.55-33.03,16.55l4.42,28.55
	c-19.33-42.77-60.75-62.36-60.75-62.36c-8.35,5.17-1.52,9.9-1.52,9.9c34.63,6.91,44.72,78.7,57.67,92.58
	c12.95,13.89,30.48,8,30.48,8C923.42,1057.72,907.85,1010.55,900.66,980.51z M865.72,992.91c-12,1.86-22.16,0.58-22.69-2.85
	c-0.53-3.43,8.77-7.71,20.77-9.57c12-1.86,22.16-0.58,22.69,2.85C887.01,986.77,877.72,991.06,865.72,992.91z"/>
</svg>
